<?xml version="1.0"?>
<svg xmlns="http://www.w3.org/2000/svg" viewBox="0 0 512 512" width="512" height="512"><g id="Outline"><path d="M445.293,108.106l-.009-.012C399.557,49.567,330.587,16,256.06,16c-1.5,0-3.01.011-4.5.041a239.683,239.683,0,0,0-191.741,101.7,8,8,0,0,0,.879,10.271l24.575,24.575A198.684,198.684,0,0,0,65.593,317.344a62.1,62.1,0,0,0-9.436,39.935,224.347,224.347,0,0,1,3.627-209.411l-14-7.736a240.219,240.219,0,0,0,9.8,247.939,28.07,28.07,0,0,0,8.106,8.069l6.55,32.538A62.676,62.676,0,0,0,131.5,478.965a63.284,63.284,0,0,0,12.489-1.251l1.626-.327a28.035,28.035,0,0,0,26.322,18.618,28.044,28.044,0,0,0,27.508-33.535L163.133,282.089h0a28,28,0,0,0-55.408,7.073l-1.626.327a62.279,62.279,0,0,0-28.032,13.516,183.789,183.789,0,0,1-6.038-43.718,181.873,181.873,0,0,1,30.107-103.445C136.551,103.464,193.942,72.12,255.655,72h.366a181.95,181.95,0,0,1,83.91,20.208,185.636,185.636,0,0,1,63.934,54.269A182.5,182.5,0,0,1,440,256a185.876,185.876,0,0,1-2.545,30.676l15.779,2.648A201.951,201.951,0,0,0,456,256a198.3,198.3,0,0,0-35.262-113.424L438.115,125.2a224.821,224.821,0,0,1,17.729,232.079A62.634,62.634,0,0,0,405.9,289.49l-1.625-.327a28,28,0,0,0-55.408-7.074L312.554,462.471a28,28,0,0,0,53.83,14.916l1.625.327a63.223,63.223,0,0,0,12.489,1.251,62.674,62.674,0,0,0,61.267-50.287l6.551-32.543a28.112,28.112,0,0,0,8.08-8.035,240.586,240.586,0,0,0-11.1-279.994Zm-319.6,172.865a11.92,11.92,0,0,1,7.624-5.12,12.1,12.1,0,0,1,2.393-.241,12.013,12.013,0,0,1,11.74,9.636h0l36.312,180.38a12,12,0,1,1-23.528,4.737L124.709,293.9h0l-.789-3.922A11.921,11.921,0,0,1,125.691,280.971Zm-16.434,24.2,1.346-.272,31.575,156.854-1.345.27A46.625,46.625,0,0,1,85.921,425.52L72.749,360.087a46.625,46.625,0,0,1,36.508-54.911ZM411.022,129.664A199.49,199.49,0,0,0,256,56h-.375c-63.881.125-123.459,30.993-161.281,83.03l-17.5-17.5A223.627,223.627,0,0,1,251.866,32.038c1.4-.029,2.8-.038,4.194-.038,67.2,0,129.55,29.228,172.181,80.445ZM346.648,477.989a12,12,0,0,1-18.408-12.361l36.312-180.381h0a12.013,12.013,0,0,1,11.74-9.636,12.089,12.089,0,0,1,2.393.241,12,12,0,0,1,9.395,14.131l-.789,3.922h0l-35.523,176.46A11.923,11.923,0,0,1,346.648,477.989Zm59.536-22.842a46.309,46.309,0,0,1-35.017,6.881l-1.345-.27L401.4,304.9l1.346.271a46.626,46.626,0,0,1,36.508,54.911L426.079,425.52A46.319,46.319,0,0,1,406.184,455.147Z"/></g></svg>
